<svg width="164" height="132" viewBox="0 0 164 132" fill="none" xmlns="http://www.w3.org/2000/svg">
<g filter="url(#filter0_dd_218_4014)">
<path d="M81.0529 8.42424L71.2 29.8089H61.3472C59.7118 29.8089 58.1174 29.9233 56.5638 30.2282L60.6522 21.0797L60.8157 20.7366L61.061 20.1267C61.1836 19.8599 61.2654 19.6312 61.3881 19.4406C66.1305 9.18662 71.4453 5.98464 81.0529 8.42424Z" fill="#6C63FF"/>
<path d="M108.812 30.8381L108.731 30.8C106.278 30.152 103.784 29.8089 101.249 29.8089H75.656L84.8547 9.87279L84.9774 9.60596C85.5497 9.79655 86.163 10.0634 86.7762 10.254L95.8114 13.799C100.84 15.7431 104.356 17.7634 106.523 20.203C106.891 20.6604 107.218 21.0797 107.545 21.5753C107.913 22.1089 108.199 22.6426 108.363 23.2144C108.526 23.5574 108.649 23.8624 108.731 24.2055C109.344 26.1495 109.385 28.3604 108.812 30.8381Z" fill="#6C63FF"/>
<path d="M83.4243 67.3178H84.4464C85.6729 67.3178 86.695 66.2886 86.695 65.0307C86.695 63.4297 86.2044 63.201 85.1414 62.8198L83.4243 62.248V67.3178Z" fill="#6C63FF"/>
<path d="M107.015 36.2891C105.175 35.7936 103.253 35.5267 101.25 35.5267H61.348C58.5679 35.5267 55.9514 36.0223 53.4984 37.0134C46.3847 39.8723 41.397 46.4668 41.397 54.1287V61.5619C41.397 62.4767 41.4787 63.3535 41.6014 64.2683C42.5008 76.3901 49.451 82.8703 62.4518 83.6708C63.3921 83.7852 64.3324 83.8614 65.3545 83.8614H97.2434C112.37 83.8614 120.342 77.1525 121.119 63.8109C121.16 63.0866 121.201 62.3243 121.201 61.5619V54.1287C121.201 45.7045 115.191 38.6144 107.015 36.2891ZM86.532 59.0842C88.4126 59.6941 90.9474 60.9901 90.9474 65.0307C90.9474 68.4995 88.0447 71.2822 84.447 71.2822H83.4249V72.1208C83.4249 73.2262 82.4846 74.103 81.299 74.103C80.1134 74.103 79.173 73.2262 79.173 72.1208V71.2822H78.8051C74.8803 71.2822 71.6505 68.1946 71.6505 64.3827C71.6505 63.2772 72.5908 62.4005 73.7765 62.4005C74.9621 62.4005 75.9024 63.2772 75.9024 64.3827C75.9024 65.9837 77.2107 67.3178 78.8051 67.3178H79.173V60.8757L76.0659 59.8465C74.1853 59.2366 71.6505 57.9406 71.6505 53.9C71.6505 50.4312 74.5532 47.6485 78.151 47.6485H79.173V46.8099C79.173 45.7045 80.1134 44.8277 81.299 44.8277C82.4846 44.8277 83.4249 45.7045 83.4249 46.8099V47.6485H83.7928C87.7176 47.6485 90.9474 50.7361 90.9474 54.548C90.9474 55.6535 90.0071 56.5302 88.8215 56.5302C87.6359 56.5302 86.6956 55.6535 86.6956 54.548C86.6956 52.947 85.3873 51.6129 83.7928 51.6129H83.4249V58.0549L86.532 59.0842Z" fill="#6C63FF"/>
<path d="M75.9025 53.9C75.9025 55.501 76.3931 55.7297 77.456 56.1109L79.1731 56.6827V51.6129H78.151C76.8837 51.6129 75.9025 52.6421 75.9025 53.9Z" fill="#6C63FF"/>
</g>
<path d="M31.757 100.102C33.533 100.102 35.085 100.454 36.413 101.158C37.741 101.862 38.765 102.854 39.485 104.134C40.221 105.398 40.589 106.862 40.589 108.526C40.589 110.174 40.221 111.638 39.485 112.918C38.765 114.198 37.733 115.19 36.389 115.894C35.061 116.598 33.517 116.95 31.757 116.95H25.445V100.102H31.757ZM31.493 113.398C33.045 113.398 34.253 112.974 35.117 112.126C35.981 111.278 36.413 110.078 36.413 108.526C36.413 106.974 35.981 105.766 35.117 104.902C34.253 104.038 33.045 103.606 31.493 103.606H29.549V113.398H31.493ZM44.9465 102.166C44.2265 102.166 43.6345 101.958 43.1705 101.542C42.7225 101.11 42.4985 100.582 42.4985 99.9584C42.4985 99.3184 42.7225 98.7904 43.1705 98.3744C43.6345 97.9424 44.2265 97.7264 44.9465 97.7264C45.6505 97.7264 46.2265 97.9424 46.6745 98.3744C47.1385 98.7904 47.3705 99.3184 47.3705 99.9584C47.3705 100.582 47.1385 101.11 46.6745 101.542C46.2265 101.958 45.6505 102.166 44.9465 102.166ZM46.9865 103.558V116.95H42.8825V103.558H46.9865ZM55.0487 103.366C55.9927 103.366 56.8167 103.558 57.5207 103.942C58.2407 104.326 58.7927 104.83 59.1767 105.454V103.558H63.2807V116.926C63.2807 118.158 63.0327 119.27 62.5367 120.262C62.0567 121.27 61.3127 122.07 60.3047 122.662C59.3127 123.254 58.0727 123.55 56.5847 123.55C54.6007 123.55 52.9927 123.078 51.7607 122.134C50.5287 121.206 49.8247 119.942 49.6487 118.342H53.7047C53.8327 118.854 54.1367 119.254 54.6167 119.542C55.0967 119.846 55.6887 119.998 56.3927 119.998C57.2407 119.998 57.9127 119.75 58.4087 119.254C58.9207 118.774 59.1767 117.998 59.1767 116.926V115.03C58.7767 115.654 58.2247 116.166 57.5207 116.566C56.8167 116.95 55.9927 117.142 55.0487 117.142C53.9447 117.142 52.9447 116.862 52.0487 116.302C51.1527 115.726 50.4407 114.918 49.9127 113.878C49.4007 112.822 49.1447 111.606 49.1447 110.23C49.1447 108.854 49.4007 107.646 49.9127 106.606C50.4407 105.566 51.1527 104.766 52.0487 104.206C52.9447 103.646 53.9447 103.366 55.0487 103.366ZM59.1767 110.254C59.1767 109.23 58.8887 108.422 58.3127 107.83C57.7527 107.238 57.0647 106.942 56.2487 106.942C55.4327 106.942 54.7367 107.238 54.1607 107.83C53.6007 108.406 53.3207 109.206 53.3207 110.23C53.3207 111.254 53.6007 112.07 54.1607 112.678C54.7367 113.27 55.4327 113.566 56.2487 113.566C57.0647 113.566 57.7527 113.27 58.3127 112.678C58.8887 112.086 59.1767 111.278 59.1767 110.254ZM68.3137 102.166C67.5937 102.166 67.0017 101.958 66.5377 101.542C66.0897 101.11 65.8657 100.582 65.8657 99.9584C65.8657 99.3184 66.0897 98.7904 66.5377 98.3744C67.0017 97.9424 67.5937 97.7264 68.3137 97.7264C69.0177 97.7264 69.5937 97.9424 70.0417 98.3744C70.5057 98.7904 70.7377 99.3184 70.7377 99.9584C70.7377 100.582 70.5057 101.11 70.0417 101.542C69.5937 101.958 69.0177 102.166 68.3137 102.166ZM70.3537 103.558V116.95H66.2497V103.558H70.3537ZM88.6138 108.31C89.5898 108.518 90.3738 109.006 90.9658 109.774C91.5578 110.526 91.8538 111.39 91.8538 112.366C91.8538 113.774 91.3578 114.894 90.3658 115.726C89.3898 116.542 88.0218 116.95 86.2618 116.95H78.4138V100.102H85.9978C87.7098 100.102 89.0458 100.494 90.0058 101.278C90.9818 102.062 91.4698 103.126 91.4698 104.47C91.4698 105.462 91.2058 106.286 90.6778 106.942C90.1658 107.598 89.4778 108.054 88.6138 108.31ZM82.5178 106.918H85.2058C85.8778 106.918 86.3898 106.774 86.7418 106.486C87.1098 106.182 87.2938 105.742 87.2938 105.166C87.2938 104.59 87.1098 104.15 86.7418 103.846C86.3898 103.542 85.8778 103.39 85.2058 103.39H82.5178V106.918ZM85.5418 113.638C86.2298 113.638 86.7578 113.486 87.1258 113.182C87.5098 112.862 87.7018 112.406 87.7018 111.814C87.7018 111.222 87.5018 110.758 87.1018 110.422C86.7178 110.086 86.1818 109.918 85.4938 109.918H82.5178V113.638H85.5418ZM93.4181 110.23C93.4181 108.854 93.6741 107.646 94.1861 106.606C94.7141 105.566 95.4261 104.766 96.3221 104.206C97.2181 103.646 98.2181 103.366 99.3221 103.366C100.266 103.366 101.09 103.558 101.794 103.942C102.514 104.326 103.066 104.83 103.45 105.454V103.558H107.554V116.95H103.45V115.054C103.05 115.678 102.49 116.182 101.77 116.566C101.066 116.95 100.242 117.142 99.2981 117.142C98.2101 117.142 97.2181 116.862 96.3221 116.302C95.4261 115.726 94.7141 114.918 94.1861 113.878C93.6741 112.822 93.4181 111.606 93.4181 110.23ZM103.45 110.254C103.45 109.23 103.162 108.422 102.586 107.83C102.026 107.238 101.338 106.942 100.522 106.942C99.7061 106.942 99.0101 107.238 98.4341 107.83C97.8741 108.406 97.5941 109.206 97.5941 110.23C97.5941 111.254 97.8741 112.07 98.4341 112.678C99.0101 113.27 99.7061 113.566 100.522 113.566C101.338 113.566 102.026 113.27 102.586 112.678C103.162 112.086 103.45 111.278 103.45 110.254ZM118.683 103.414C120.251 103.414 121.499 103.926 122.427 104.95C123.371 105.958 123.843 107.35 123.843 109.126V116.95H119.763V109.678C119.763 108.782 119.531 108.086 119.067 107.59C118.603 107.094 117.979 106.846 117.195 106.846C116.411 106.846 115.787 107.094 115.323 107.59C114.859 108.086 114.627 108.782 114.627 109.678V116.95H110.523V103.558H114.627V105.334C115.043 104.742 115.603 104.278 116.307 103.942C117.011 103.59 117.803 103.414 118.683 103.414ZM134.879 116.95L130.799 111.334V116.95H126.695V99.1904H130.799V109.006L134.855 103.558H139.919L134.351 110.278L139.967 116.95H134.879Z" fill="#6C63FF"/>
<defs>
<filter id="filter0_dd_218_4014" x="26.397" y="6.64673" width="109.804" height="108.215" filterUnits="userSpaceOnUse" color-interpolation-filters="sRGB">
<feFlood flood-opacity="0" result="BackgroundImageFix"/>
<feColorMatrix in="SourceAlpha" type="matrix" values="0 0 0 0 0 0 0 0 0 0 0 0 0 0 0 0 0 0 127 0" result="hardAlpha"/>
<feMorphology radius="1" operator="erode" in="SourceAlpha" result="effect1_dropShadow_218_4014"/>
<feOffset dy="16"/>
<feGaussianBlur stdDeviation="8"/>
<feColorMatrix type="matrix" values="0 0 0 0 0.0392157 0 0 0 0 0.0862745 0 0 0 0 0.27451 0 0 0 0.1 0"/>
<feBlend mode="normal" in2="BackgroundImageFix" result="effect1_dropShadow_218_4014"/>
<feColorMatrix in="SourceAlpha" type="matrix" values="0 0 0 0 0 0 0 0 0 0 0 0 0 0 0 0 0 0 127 0" result="hardAlpha"/>
<feOffset/>
<feGaussianBlur stdDeviation="0.5"/>
<feColorMatrix type="matrix" values="0 0 0 0 0.0392157 0 0 0 0 0.0862745 0 0 0 0 0.27451 0 0 0 0.06 0"/>
<feBlend mode="normal" in2="effect1_dropShadow_218_4014" result="effect2_dropShadow_218_4014"/>
<feBlend mode="normal" in="SourceGraphic" in2="effect2_dropShadow_218_4014" result="shape"/>
</filter>
</defs>
</svg>
